<?xml version="1.0" encoding="utf-8"?>
<!-- Generator: Adobe Illustrator 19.0.0, SVG Export Plug-In . SVG Version: 6.00 Build 0)  -->
<svg version="1.1" id="Layer_1" xmlns="http://www.w3.org/2000/svg" xmlns:xlink="http://www.w3.org/1999/xlink" x="0px" y="0px"
	 viewBox="0 0 281.4 387.5" style="enable-background:new 0 0 281.4 387.5;" xml:space="preserve">
<style type="text/css">
	.st0{fill:#F05A22;}
</style>
<path class="st0" d="M220.5,254l17.1-14.9h0.1v-44l-12.5-11.2l12.5-13.9l-0.1,0h0.1v-43.8l-17.3-15.4v43.8l0,0L204,173l16.4,14.5
	v36.2l0,0l-17,15l-63,0h-0.1l0,0v0l0,0l17.2,15.3H220.5z M178.8,313.5v-42h-6.6v42H178.8z M157.2,336.6h-2.3V331h-2v13h2v-5.6h2.3
	v5.6h2.1v-13h-2.1V336.6z M153.3,271.4h-10.5v42h10.5c6.6,0,9.9-3.7,9.9-10.4v-21.3C163.2,275.1,160,271.4,153.3,271.4z
	 M156.6,303.4c0,3-1.3,4.1-3.4,4.1h-3.7v-30h3.7c2.1,0,3.4,1.1,3.4,4.1V303.4z M166.8,212.3h17.4v-16.1l0.1,0.1h10.9v-15.9h-28.4
	V212.3z M184.4,138h10.9v-15.9h-28.4v31.9h17.4v-16.1L184.4,138z M133.7,341.1c0,0.9-0.4,1.3-1.1,1.3c-0.7,0-1.1-0.3-1.1-1.3v-10h-2
	v9.9c0,2.1,1,3.3,3,3.3c2,0,3-1.2,3-3.3V331h-1.9V341.1z M143.2,334c0-0.9,0.4-1.3,1-1.3c0.7,0,1,0.4,1,1.3v0.5h1.9v-0.4
	c0-2.1-1-3.3-3-3.3c-2,0-3,1.2-3,3.3c0,3.7,4,4.2,4,6.9c0,0.9-0.4,1.3-1.1,1.3c-0.7,0-1.1-0.3-1.1-1.3v-0.9h-1.9v0.8
	c0,2.1,1,3.3,3,3.3s3-1.2,3-3.3C147.2,337.2,143.2,336.7,143.2,334z M86.5,331h-2v13h5.4v-1.9h-3.4V331z M86,303.9
	c0,3-1.3,4.1-3.4,4.1s-3.4-1.1-3.4-4.1v-32.4h-6.6v32c0,6.7,3.4,10.6,9.9,10.6c6.5,0,9.9-3.8,9.9-10.6v-32H86V303.9z M73.6,344h2
	v-5.4h2.6v-1.9h-2.6v-3.9H79V331h-5.4V344z M55.7,332.7v1.4h1.6v9.9h2v-13h-1.4C57.6,331.9,57.3,332.7,55.7,332.7z M105.9,332.9h2.1
	V344h2v-11.2h2.1V331h-6.3V332.9z M122.4,337.1c0.9-0.4,1.3-1.3,1.3-2.6V334c0-2-0.9-3-3-3h-3.1v13h3.2c2,0,3.1-1.1,3.1-3.1v-1.1
	C123.9,338.5,123.5,337.5,122.4,337.1z M119.6,332.9h1c0.7,0,1,0.4,1,1.3v0.7c0,1-0.5,1.4-1.2,1.4h-0.8V332.9z M121.9,340.9
	c0,1-0.4,1.3-1.1,1.3h-1.2v-4h0.9c0.9,0,1.3,0.4,1.3,1.6V340.9z M117.7,271.4v42h17.5v-6h-10.9v-36H117.7z M108.1,271.4h-6.6v42h6.6
	V271.4z M96.7,331l-2.1,13h1.9l0.4-2.4h2.5l0.4,2.4h2.1l-2.1-13H96.7z M97.1,339.9l1-6.6l1,6.6H97.1z M176,82.9h-12.5V69.4h10v-6.6
	h-10V50H176v-6.6h-19.8v46.1H176V82.9z M43.8,238.6L43.8,238.6L43.8,238.6L43.8,238.6z M50.9,72.2h3.4c7.2,0,10.8-4,10.8-11.4v-6
	c0-7.4-3.6-11.4-10.8-11.4H43.6v46.1h7.2V72.2z M50.9,50h3.4c2.3,0,3.6,1.1,3.6,4.3v6.9c0,3.3-1.3,4.3-3.6,4.3h-3.4V50z M101.9,90
	c7.1,0,11-4.2,11-11.6v-24c0-7.4-3.9-11.6-11-11.6c-7.1,0-11,4.2-11,11.6v24C90.9,85.8,94.8,90,101.9,90z M98.2,54
	c0-3.3,1.4-4.5,3.8-4.5c2.3,0,3.8,1.3,3.8,4.5v24.9c0,3.3-1.4,4.5-3.8,4.5c-2.3,0-3.8-1.3-3.8-4.5V54z M81,43.4h-7.2v46.1H81V43.4z
	 M87.6,137.9l0.1,0.1h9.1v-15.9H70.2v41.7h17.4V137.9z M87.4,253.8l0.1-48.5h35.7l17.4-15.2l-0.1,0h0.1V126l-17.3-15.4v64l0,0
	L106.1,190l0,0l-18.5,0v-0.1H70v48.5H43.6l17.3,15.4L87.4,253.8z M0,0v387.5h281.4V0H0z M263.7,370.1H17.6V17.4h246.1V370.1z
	 M43.8,238.6L43.8,238.6L43.8,238.6L43.8,238.6z M46,344h2v-2.4h1v-1.9h-1V331h-2.2l-3.7,8.8v1.9H46V344z M44,339.8l2-4.8v4.8H44z
	 M64.1,303.5v-3.4c0-4.4-1.4-7.6-4.9-9c2.9-1.4,4.3-4.1,4.3-8.5v-1.5c0-6.5-2.9-9.7-9.8-9.7h-10v42H54
	C60.6,313.5,64.1,310,64.1,303.5z M50.2,277.4h3.2c2.3,0,3.4,1.3,3.4,4.3v2.3c0,3.4-1.5,4.4-4,4.4h-2.6V277.4z M50.2,294.5h2.9
	c3,0,4.3,1.2,4.3,5.1v3.7c0,3.1-1.2,4.1-3.4,4.1h-3.8V294.5z M205.6,82.9H193V69.4h10v-6.6h-10V50h12.5v-6.6h-19.8v46.1h19.8V82.9z
	 M212,338.8l-2.1-7.8h-2.6v13h1.8v-9.4l2.5,9.4h2.1v-13H212V338.8z M209.3,271.4h-5.9v25.2l-6.8-25.2h-8.3v42h5.9V283l8.2,30.5h6.8
	V271.4z M196.1,344h5.6v-1.9h-3.5v-3.8h2.8v-1.9h-2.8v-3.6h3.5V331h-5.6V344z M187.2,341.6l-1.6-10.6h-2.1l2,13h3l2-13h-1.9
	L187.2,341.6z M223.8,341.1c0,0.9-0.4,1.3-1.1,1.3c-0.7,0-1.1-0.3-1.1-1.3v-10h-2v9.9c0,2.1,1,3.3,3,3.3c2,0,3-1.2,3-3.3V331h-1.9
	V341.1z M228.2,270.9c-6.5,0-9.9,3.8-9.9,10.6v21.9c0,6.7,3.4,10.6,9.9,10.6c6.5,0,9.9-3.8,9.9-10.6V290h-9.3v6h3v7.7
	c0,3-1.3,4.1-3.4,4.1c-2.1,0-3.4-1.1-3.4-4.1v-22.7c0-3,1.3-4.1,3.4-4.1c2.1,0,3.4,1.1,3.4,4.1v4.5h6.2v-4.1
	C238,274.8,234.7,270.9,228.2,270.9z M222.5,70.7h2.5c3.3,0,4.7,1.6,4.7,5.9v7.2c0,3.8,0.3,4.5,0.7,5.7h7.4
	c-0.7-1.7-0.8-3.4-0.8-5.6v-7.1c0-4.8-1.2-8.3-4.8-9.8c3.2-1.5,4.7-4.6,4.7-9.4V54c0-7.1-3.2-10.6-10.7-10.6h-10.9v46.1h7.2V70.7z
	 M222.5,50h3.5c2.6,0,3.7,1.4,3.7,4.7v4.5c0,3.7-1.6,4.9-4.3,4.9h-2.8V50z M174.1,331l-2.1,13h1.9l0.4-2.4h2.5l0.4,2.4h2.1l-2.1-13
	H174.1z M174.5,339.9l1-6.6l1,6.6H174.5z M231.6,344h5.6v-1.9h-3.5v-3.8h2.8v-1.9h-2.8v-3.6h3.5V331h-5.6V344z M129.3,56.1l9,33.4
	h7.4V43.4h-6.5V71l-7.4-27.6h-9.1v46.1h6.5V56.1z"/>
</svg>
