<svg id="Layer_1" data-name="Layer 1" xmlns="http://www.w3.org/2000/svg" viewBox="0 0 165.16 209.27"><defs><style>.cls-1{fill:#f05a22;}</style></defs><title>logo</title><path class="cls-1" d="M129.41,149.1l10.05-8.74h0.08V114.53L132.19,108l7.32-8.18,0,0h0V74L129.33,65V90.67h0l-9.62,10.86,9.63,8.53v21.26h0l-10,8.8-37,0H82.37l0,0h0l10.11,9h36.91ZM105,184V159.32h-3.88V184H105ZM90,159.32H83.88V184H90c3.88,0,5.78-2.15,5.78-6.1V165.42C95.8,161.47,93.89,159.32,90,159.32Zm1.9,18.76c0,1.76-.74,2.4-2,2.4H87.76V162.84h2.19c1.23,0,2,.63,2,2.4v12.84Zm6-53.44h10.21v-9.42l0.08,0.07h6.39v-9.35H97.93v18.7ZM108.22,81h6.39V71.65H97.93v18.7h10.21V80.93ZM50.46,178.36c0,1.76-.78,2.4-2,2.4s-2-.63-2-2.4v-19H42.56v18.79c0,3.95,2,6.21,5.78,6.21s5.78-2.26,5.78-6.21V159.32H50.46v19Zm18.65-19V184H79.37v-3.53H73V159.32H69.11Zm-5.64,0H59.59V184h3.88V159.32ZM103.34,48.67H96V40.74h5.84V36.87H96V29.33h7.35V25.46H91.73V52.54h11.6V48.67ZM25.69,140.08h0Zm4.18-97.72h2c4.26,0,6.34-2.36,6.34-6.69V32.15c0-4.33-2.09-6.69-6.34-6.69H25.61V52.54h4.26V42.37Zm0-13h2c1.35,0,2.09.62,2.09,2.55v4.06c0,1.93-.73,2.55-2.09,2.55h-2V29.33Zm30,23.52c4.18,0,6.46-2.48,6.46-6.81V32c0-4.33-2.28-6.81-6.46-6.81S53.37,27.63,53.37,32V46C53.37,50.37,55.66,52.85,59.83,52.85Zm-2.2-21.16c0-1.93.85-2.67,2.2-2.67S62,29.76,62,31.69V46.31c0,1.93-.85,2.67-2.21,2.67s-2.2-.73-2.2-2.67V31.69ZM47.54,25.46H43.28V52.54h4.26V25.46Zm3.9,55.46L51.52,81h5.37V71.65H41.22V96.12H51.44V80.93ZM51.3,149l0.05-28.46h21l10.23-8.92,0,0h0V73.93L72.39,64.88v37.59h0l-10.15,9.06H51.35v0H41.09V140H25.61l10.13,9H51.3ZM0,0V209.27H165.16V0H0ZM154.82,199.07H10.34V10.21H154.82V199.07Zm-129.13-59h0ZM37.6,178.15v-2c0-2.61-.81-4.48-2.89-5.29,1.73-.81,2.5-2.43,2.5-5V165c0-3.81-1.73-5.68-5.75-5.68H25.61V184h6.1C35.59,184,37.6,182,37.6,178.15Zm-8.11-15.3h1.87c1.37,0,2,.78,2,2.54v1.37c0,2-.88,2.61-2.33,2.61H29.49v-6.52Zm0,10h1.73c1.76,0,2.5.71,2.5,3V178c0,1.83-.71,2.43-2,2.43H29.49v-7.58ZM120.66,48.67h-7.35V40.74h5.84V36.87h-5.84V29.33h7.35V25.46h-11.6V52.54h11.6V48.67Zm2.21,110.65h-3.46v14.78l-4-14.78h-4.87V184h3.49V166.12L118.88,184h4V159.32Zm11.07-.28c-3.81,0-5.78,2.26-5.78,6.21v12.84c0,3.95,2,6.21,5.78,6.21s5.78-2.26,5.78-6.21v-7.83h-5.43v3.53h1.76v4.55c0,1.76-.78,2.4-2,2.4s-2-.63-2-2.4V165c0-1.76.78-2.43,2-2.43s2,0.67,2,2.43v2.64h3.67v-2.4C139.72,161.29,137.74,159,133.94,159Zm-3.3-117.52h1.47c1.93,0,2.79.93,2.79,3.44v4.26a8.32,8.32,0,0,0,.39,3.33h4.33a8,8,0,0,1-.46-3.29V45.07c0-2.83-.7-4.88-2.82-5.76,1.9-.89,2.78-2.71,2.78-5.49V31.69c0-4.18-1.9-6.23-6.3-6.23h-6.42V52.54h4.26v-11Zm0-12.18h2c1.51,0,2.17.85,2.17,2.79v2.67c0,2.17-1,2.86-2.55,2.86h-1.66V29.33Zm-54.72,3.6,5.3,19.61h4.37V25.46H81.8V41.67L77.43,25.46H72.09V52.54h3.83V32.93Z"/></svg>
