<?xml version="1.0" encoding="iso-8859-1"?>
<!-- Generator: Adobe Illustrator 16.0.0, SVG Export Plug-In . SVG Version: 6.00 Build 0)  -->
<!DOCTYPE svg PUBLIC "-//W3C//DTD SVG 1.1//EN" "http://www.w3.org/Graphics/SVG/1.1/DTD/svg11.dtd">
<svg version="1.1" id="Capa_1" xmlns="http://www.w3.org/2000/svg" xmlns:xlink="http://www.w3.org/1999/xlink" x="0px" y="0px"
	 width="575.305px" height="575.305px" viewBox="0 0 575.305 575.305" style="enable-background:new 0 0 575.305 575.305;"
	 xml:space="preserve">
<g>
	<path d="M567.691,308.301l-129.891-13.524V127.1c0-3.109-1.715-5.96-4.443-7.442L291.961,43.061
		c-1.273-0.734-2.742-1.163-4.321-1.163c-1.616,0-3.121,0.453-4.418,1.236l-141.274,76.524c-2.742,1.481-4.431,4.333-4.431,7.442
		v167.664L7.601,308.301C3.292,308.754,0,312.39,0,316.723v115.153c0,3.647,2.338,6.879,5.802,8.042l279.084,93.024
		c0.869,0.293,1.787,0.465,2.766,0.465c0.93,0,1.824-0.147,2.668-0.429c0,0,0.012,0,0.025,0l279.17-93.061
		c3.451-1.163,5.789-4.395,5.789-8.042V316.723C575.279,312.39,572,308.754,567.691,308.301z M29.4,420.334
		c0,0.869-0.404,1.714-1.114,2.24c-0.489,0.379-1.102,0.587-1.713,0.587c-0.257,0-0.502-0.036-0.747-0.098l-12.313-3.342
		c-1.236-0.33-2.081-1.456-2.081-2.741v-33.611c0-0.82,0.355-1.604,0.979-2.142c0.612-0.539,1.444-0.771,2.252-0.661l12.338,1.787
		c1.383,0.208,2.412,1.396,2.412,2.803v35.178H29.4z M29.4,367.579c0,0.784-0.33,1.543-0.906,2.081
		c-0.526,0.478-1.211,0.759-1.909,0.759c-0.086,0-0.159-0.012-0.245-0.012l-12.326-1.028c-1.469-0.122-2.595-1.347-2.595-2.815
		V332.94c0-1.518,1.2-2.767,2.705-2.827l12.338-0.515c0.759-0.012,1.518,0.257,2.069,0.783c0.563,0.539,0.869,1.273,0.869,2.044
		V367.579z M57.797,428.021c0,0.882-0.404,1.714-1.102,2.252c-0.502,0.38-1.114,0.575-1.726,0.575c-0.257,0-0.49-0.024-0.747-0.098
		l-14.872-4.026c-1.236-0.331-2.093-1.444-2.093-2.729v-36.855c0-0.819,0.355-1.604,0.979-2.142
		c0.625-0.538,1.444-0.771,2.252-0.661l14.884,2.179c1.383,0.208,2.411,1.383,2.411,2.803v38.703H57.797z M57.797,369.954
		c0,0.783-0.318,1.542-0.906,2.081c-0.526,0.478-1.212,0.746-1.909,0.746c-0.074,0-0.159-0.012-0.245-0.012l-14.872-1.249
		c-1.469-0.122-2.595-1.346-2.595-2.814v-36.867c0-1.506,1.199-2.754,2.705-2.815l14.884-0.624c0.771-0.013,1.518,0.257,2.081,0.783
		c0.551,0.539,0.857,1.261,0.857,2.044V369.954z M92.559,437.434c0,0.881-0.404,1.713-1.102,2.252
		c-0.502,0.379-1.114,0.575-1.726,0.575c-0.257,0-0.489-0.024-0.747-0.098l-18.299-4.958c-1.236-0.33-2.093-1.443-2.093-2.729
		v-40.771c0-0.808,0.355-1.603,0.979-2.129c0.625-0.539,1.432-0.771,2.252-0.661l18.311,2.668c1.383,0.208,2.412,1.383,2.412,2.803
		v43.049H92.559z M92.559,372.855c0,0.783-0.318,1.542-0.906,2.08c-0.526,0.478-1.212,0.734-1.91,0.734
		c-0.073,0-0.159,0-0.245-0.012L71.2,374.141c-1.469-0.135-2.595-1.347-2.595-2.815v-40.771c0-1.506,1.199-2.767,2.705-2.815
		l18.311-0.759c0.759-0.024,1.518,0.257,2.081,0.783c0.551,0.526,0.857,1.273,0.857,2.032V372.855L92.559,372.855z M136.133,449.232
		c0,0.882-0.404,1.714-1.114,2.252c-0.49,0.38-1.102,0.575-1.713,0.575c-0.245,0-0.502-0.024-0.734-0.098l-23.085-6.255
		c-1.236-0.33-2.081-1.444-2.081-2.729v-45.605c0-0.82,0.343-1.604,0.967-2.143c0.625-0.538,1.444-0.771,2.265-0.661l23.084,3.354
		c1.383,0.208,2.411,1.395,2.411,2.803V449.232z M135.84,378.596c-0.526,0.489-1.212,0.759-1.922,0.759
		c-0.073,0-0.159,0-0.232-0.013l-23.697-1.971c-1.457-0.122-2.583-1.346-2.583-2.814v-45.619c0-1.518,1.199-2.766,2.705-2.814
		l23.084-0.968c0.759-0.024,1.505,0.258,2.056,0.784c0.563,0.526,0.869,1.248,0.881,2.02l0.612,48.556
		C136.746,377.286,136.427,378.057,135.84,378.596z M221.336,114.677c0-1.077,0.625-2.069,1.604-2.546l40.539-19.425
		c0.869-0.417,1.897-0.355,2.729,0.159c0.82,0.526,1.322,1.419,1.322,2.387v64.933c0,1.199-0.759,2.264-1.873,2.668l-40.539,14.357
		c-0.306,0.11-0.636,0.171-0.942,0.171c-0.575,0-1.15-0.184-1.628-0.526c-0.759-0.526-1.2-1.383-1.2-2.313v-59.866H221.336z
		 M156.685,145.656c0-1.089,0.624-2.081,1.603-2.546l29.988-14.37c0.869-0.416,1.897-0.354,2.729,0.159
		c0.808,0.514,1.31,1.42,1.31,2.387v55.521c0,1.211-0.759,2.276-1.873,2.668L160.454,200.1c-0.306,0.11-0.624,0.159-0.942,0.159
		c-0.575,0-1.15-0.184-1.628-0.514c-0.759-0.526-1.199-1.383-1.199-2.301V145.656L156.685,145.656z M156.685,223.331
		c0-1.261,0.82-2.362,2.032-2.717l29.976-8.751c0.857-0.257,1.787-0.086,2.485,0.453c0.722,0.539,1.138,1.371,1.138,2.265V270.1
		c0,1.383-1.003,2.57-2.35,2.779l-29.988,5.006c-0.159,0.024-0.306,0.037-0.465,0.037c-0.661,0-1.31-0.245-1.824-0.673
		c-0.636-0.539-0.991-1.322-0.991-2.167v-51.751H156.685z M156.685,326.882c0-1.506,1.199-2.767,2.705-2.815l29.988-1.248
		c0.759-0.025,1.518,0.257,2.068,0.783c0.563,0.538,0.869,1.272,0.869,2.044v55.521c0,0.796-0.331,1.542-0.906,2.081
		c-0.526,0.477-1.212,0.734-1.909,0.734c-0.086,0-0.159,0-0.233-0.013l-29.988-2.497c-1.457-0.122-2.583-1.334-2.583-2.803v-51.787
		H156.685z M189.512,467.274c-0.012,0-0.024,0-0.024,0c-0.257,0-0.502-0.024-0.734-0.098l-29.988-8.115
		c-1.236-0.331-2.081-1.457-2.081-2.729v-51.775c0-0.82,0.355-1.604,0.967-2.142c0.624-0.539,1.457-0.771,2.264-0.661l29.988,4.369
		c1.383,0.208,2.411,1.384,2.411,2.803v55.166c0.012,0.122,0.024,0.245,0.024,0.355
		C192.339,466.014,191.066,467.274,189.512,467.274z M267.505,484.814c0,0.869-0.404,1.714-1.102,2.252
		c-0.502,0.38-1.114,0.575-1.726,0.575c-0.257,0-0.489-0.024-0.734-0.098l-40.539-10.967c-1.236-0.331-2.081-1.457-2.081-2.742
		v-59.854c0-0.82,0.343-1.604,0.967-2.142c0.625-0.539,1.444-0.771,2.265-0.661l40.527,5.899c1.383,0.208,2.411,1.396,2.411,2.803
		v64.934H267.505z M267.505,387.421c0,0.783-0.318,1.542-0.906,2.08c-0.526,0.478-1.212,0.759-1.91,0.759
		c-0.073,0-0.159-0.012-0.232-0.012l-40.539-3.378c-1.457-0.123-2.583-1.335-2.583-2.804l0.012-59.865
		c0-1.518,1.2-2.767,2.705-2.815l40.515-1.701c0.771-0.013,1.518,0.257,2.081,0.796c0.551,0.538,0.857,1.272,0.857,2.044V387.421z
		 M265.155,260.369l-40.527,6.757c-0.159,0.024-0.306,0.037-0.465,0.037c-0.673,0-1.31-0.232-1.824-0.673
		c-0.637-0.539-0.992-1.322-0.992-2.154v-59.866c0-1.249,0.82-2.35,2.032-2.717l40.526-11.824c0.845-0.257,1.775-0.086,2.485,0.453
		s1.126,1.371,1.126,2.265l0.012,64.933C267.518,258.95,266.514,260.137,265.155,260.369z M353.957,473.835
		c0,1.272-0.846,2.399-2.082,2.742l-40.525,10.967c-0.258,0.073-0.49,0.098-0.748,0.098c-0.611,0-1.223-0.195-1.725-0.575
		c-0.697-0.539-1.102-1.371-1.102-2.252v-64.934c0-1.396,1.027-2.595,2.41-2.803l40.539-5.899c0.809-0.123,1.641,0.122,2.266,0.661
		c0.623,0.538,0.967,1.31,0.967,2.142V473.835L353.957,473.835z M353.957,384.055c0,1.469-1.139,2.705-2.607,2.803l-40.527,3.097
		c-0.072,0-0.146,0-0.221,0c-0.709,0-1.383-0.257-1.908-0.746c-0.576-0.526-0.906-1.273-0.906-2.069v-64.627
		c0-0.771,0.307-1.506,0.869-2.044c0.551-0.539,1.273-0.808,2.068-0.796l40.539,1.701c1.518,0.062,2.705,1.298,2.705,2.815v59.866
		H353.957z M353.957,264.335c0,0.82-0.355,1.616-0.992,2.154c-0.514,0.441-1.162,0.673-1.824,0.673
		c-0.158,0-0.305-0.012-0.465-0.037l-40.539-6.757c-1.357-0.22-2.35-1.407-2.35-2.791v-64.933c0-0.881,0.416-1.726,1.127-2.265
		c0.721-0.539,1.639-0.71,2.484-0.453l40.539,11.824c1.211,0.355,2.031,1.457,2.031,2.717v59.866H353.957z M353.957,174.542
		c0,0.918-0.441,1.787-1.199,2.313c-0.479,0.343-1.053,0.526-1.629,0.526c-0.307,0-0.637-0.062-0.941-0.171l-40.539-14.357
		c-1.127-0.404-1.873-1.469-1.873-2.668V95.264c0-0.979,0.502-1.873,1.322-2.387c0.807-0.526,1.836-0.587,2.729-0.159l40.514,19.413
		c0.98,0.477,1.604,1.469,1.604,2.546v59.866H353.957z M418.607,456.332c0,1.272-0.844,2.387-2.08,2.729l-29.988,8.115
		c-0.244,0.073-0.49,0.098-0.746,0.098c-0.611,0-1.225-0.196-1.713-0.575c-0.711-0.539-1.115-1.359-1.115-2.252v-55.521
		c0-1.407,1.029-2.595,2.412-2.803l29.988-4.369c0.807-0.123,1.639,0.122,2.264,0.661c0.625,0.538,0.967,1.31,0.967,2.142v51.775
		H418.607z M418.607,378.669c0,1.469-1.125,2.692-2.582,2.803l-29.988,2.497c-0.072,0.013-0.158,0.013-0.244,0.013
		c-0.711,0-1.383-0.258-1.91-0.734c-0.574-0.539-0.906-1.285-0.906-2.081v-55.521c0-0.771,0.307-1.506,0.869-2.044
		c0.551-0.526,1.273-0.809,2.07-0.783l29.986,1.248c1.506,0.062,2.705,1.31,2.705,2.815V378.669z M418.607,275.106
		c0,0.832-0.354,1.628-0.99,2.167c-0.514,0.428-1.176,0.673-1.824,0.673c-0.158,0-0.307-0.012-0.465-0.037l-29.977-5.006
		c-1.357-0.208-2.361-1.396-2.361-2.779V214.58c0-0.881,0.416-1.726,1.139-2.265c0.709-0.539,1.627-0.709,2.484-0.453l29.975,8.751
		c1.213,0.343,2.033,1.457,2.033,2.717v51.775H418.607z M418.607,197.443c0,0.918-0.439,1.787-1.199,2.301
		c-0.477,0.331-1.053,0.514-1.627,0.514c-0.318,0-0.637-0.049-0.943-0.159l-29.988-10.625c-1.125-0.392-1.873-1.457-1.873-2.668
		v-55.521c0-0.967,0.502-1.873,1.311-2.387c0.82-0.514,1.848-0.575,2.73-0.159l29.986,14.37c0.98,0.465,1.604,1.457,1.604,2.546
		V197.443z M467.887,442.978c0,1.273-0.846,2.387-2.082,2.729l-23.084,6.255c-0.244,0.073-0.49,0.098-0.734,0.098
		c-0.611,0-1.225-0.195-1.713-0.575c-0.711-0.538-1.115-1.358-1.115-2.252v-48.507c0-1.396,1.029-2.595,2.412-2.803l23.084-3.354
		c0.809-0.122,1.641,0.123,2.266,0.661c0.623,0.539,0.967,1.31,0.967,2.143V442.978z M467.887,374.557
		c0,1.469-1.127,2.705-2.582,2.814l-23.086,1.922c-0.072,0-0.158,0.013-0.232,0.013c-0.709,0-1.383-0.27-1.91-0.759
		c-0.574-0.539-0.904-1.285-0.904-2.081v-48.495c0-0.783,0.305-1.505,0.869-2.044c0.551-0.538,1.271-0.808,2.068-0.783l23.084,0.967
		c1.518,0.062,2.705,1.298,2.705,2.815v45.631H467.887z M506.688,432.476c0,1.273-0.846,2.388-2.082,2.729l-18.311,4.958
		c-0.256,0.073-0.488,0.098-0.746,0.098c-0.611,0-1.225-0.196-1.727-0.575c-0.697-0.539-1.102-1.358-1.102-2.252v-43.049
		c0-1.407,1.029-2.595,2.412-2.803l18.311-2.668c0.809-0.123,1.629,0.122,2.252,0.661c0.625,0.526,0.98,1.321,0.98,2.13v40.771
		H506.688z M506.688,371.325c0,1.469-1.127,2.692-2.596,2.815l-18.299,1.518c-0.086,0.012-0.158,0.012-0.244,0.012
		c-0.711,0-1.383-0.257-1.91-0.734c-0.588-0.538-0.904-1.297-0.904-2.08v-43.061c0-0.759,0.305-1.506,0.855-2.032
		c0.564-0.538,1.273-0.808,2.082-0.783l18.311,0.759c1.506,0.062,2.705,1.31,2.705,2.815V371.325L506.688,371.325z M538.021,423.994
		c0,1.272-0.844,2.387-2.08,2.729l-14.885,4.015c-0.256,0.073-0.49,0.098-0.746,0.098c-0.611,0-1.225-0.196-1.727-0.575
		c-0.697-0.539-1.102-1.358-1.102-2.252v-38.703c0-1.408,1.029-2.595,2.412-2.803l14.883-2.179c0.809-0.123,1.641,0.122,2.266,0.66
		c0.623,0.539,0.967,1.311,0.967,2.143v36.867H538.021z M538.021,368.718c0,1.457-1.125,2.692-2.596,2.815l-14.871,1.248
		c-0.086,0-0.172,0.013-0.244,0.013c-0.711,0-1.383-0.27-1.91-0.747c-0.588-0.538-0.906-1.297-0.906-2.08v-38.703
		c0-0.783,0.307-1.506,0.857-2.044c0.562-0.526,1.285-0.809,2.082-0.784l14.883,0.625c1.506,0.073,2.705,1.31,2.705,2.814V368.718
		L538.021,368.718z M563.859,416.98c0,1.272-0.844,2.398-2.08,2.729l-12.338,3.341c-0.244,0.062-0.49,0.099-0.734,0.099
		c-0.611,0-1.225-0.208-1.713-0.588c-0.711-0.526-1.115-1.358-1.115-2.24v-35.165c0-1.396,1.029-2.595,2.412-2.803l12.338-1.787
		c0.809-0.123,1.641,0.122,2.264,0.661c0.625,0.538,0.967,1.31,0.967,2.142V416.98z M563.859,366.552
		c0,1.469-1.125,2.705-2.582,2.814l-12.338,1.028c-0.086,0-0.158,0.013-0.232,0.013c-0.709,0-1.383-0.27-1.91-0.759
		c-0.574-0.539-0.904-1.285-0.904-2.081v-35.153c0-0.771,0.305-1.506,0.869-2.044c0.551-0.539,1.271-0.796,2.068-0.783l12.338,0.514
		c1.506,0.073,2.705,1.31,2.705,2.827v33.624H563.859z"/>
</g>
<g>
</g>
<g>
</g>
<g>
</g>
<g>
</g>
<g>
</g>
<g>
</g>
<g>
</g>
<g>
</g>
<g>
</g>
<g>
</g>
<g>
</g>
<g>
</g>
<g>
</g>
<g>
</g>
<g>
</g>
</svg>
