<svg id="Layer_1" data-name="Layer 1" xmlns="http://www.w3.org/2000/svg" viewBox="0 0 306.22 306.34"><defs><style>.cls-1{fill:#f05a22;}</style></defs><title>Pioneer-logo-MIN-RGB</title><path class="cls-1" d="M239.94,231.89l18.64-16.2h0.14v-47.9L245.1,155.64l13.57-15.17-0.06-.05h0.06V92.72L239.79,75.93v47.63l0,0L222,143.7l17.85,15.81v39.41l0,0-18.48,16.32-68.52-.05h-0.1l0,0v0h0l18.74,16.67h68.43Zm-58.37-45.35H200.5V169.07l0.15,0.14H212.5V151.88H181.56v34.67Zm19.09-80.91H212.5V88.3H181.56V123H200.5V105.49Zm-153,109.55h0ZM95.37,105.49l0.15,0.14h10V88.3h-29v45.36H95.37V105.49ZM95.12,231.67l0.1-52.77h38.91l19-16.54L153,162.3h0.06V92.53L134.21,75.74v69.7l0,0-18.81,16.8,0,0-20.18,0v-0.08h-19v52.81H47.48l18.79,16.72ZM0,0V306.34H306.22V0H0ZM287,287.42H19.18V18.92H287v268.5ZM47.63,215.18h0Z"/></svg>